<?xml version="1.0" standalone="no"?>
<!DOCTYPE svg PUBLIC "-//W3C//DTD SVG 20010904//EN"
 "http://www.w3.org/TR/2001/REC-SVG-20010904/DTD/svg10.dtd">
<svg version="1.0" xmlns="http://www.w3.org/2000/svg"
 width="1822pt" height="2885pt" viewBox="0 0 1822 2885"
 preserveAspectRatio="xMidYMid meet">

<g transform="translate(0.000000,2885.000000) scale(0.100000,-0.100000)"
fill="#000000" stroke="none">
<path d="M5335 28659 c-66 -16 -284 -61 -485 -99 -709 -137 -909 -183 -1230
-290 -786 -259 -1544 -653 -2160 -1121 -337 -256 -698 -592 -885 -824 -283
-350 -420 -780 -385 -1209 14 -174 22 -219 139 -726 55 -239 139 -606 186
-815 272 -1193 514 -2020 701 -2386 123 -240 298 -456 435 -537 202 -119 430
-117 717 5 46 19 86 32 90 29 11 -12 6 -635 -7 -796 -50 -634 -144 -1147 -416
-2274 -136 -563 -148 -615 -196 -831 -216 -963 -378 -2125 -444 -3180 -70
-1118 -31 -2247 111 -3250 36 -254 43 -346 33 -456 -18 -189 -71 -331 -203
-539 -179 -283 -318 -644 -380 -984 -44 -238 -51 -335 -50 -661 0 -404 24
-624 124 -1125 107 -539 191 -872 490 -1935 232 -824 347 -1260 409 -1545 99
-458 68 -757 -111 -1052 -142 -235 -208 -444 -238 -757 -45 -465 169 -762 665
-926 310 -102 603 -124 1189 -89 181 11 352 15 516 11 259 -5 404 3 534 29
338 68 633 260 853 555 39 53 93 112 120 131 251 184 804 288 1045 198 91 -34
135 -95 153 -215 11 -75 62 -221 106 -304 100 -186 234 -298 421 -351 91 -26
278 -36 405 -22 121 14 184 4 342 -58 189 -73 215 -75 423 -46 359 52 662 57
986 16 192 -25 264 -25 343 0 97 30 153 70 289 209 135 139 180 167 295 191
108 22 244 -6 437 -91 195 -86 395 -142 623 -176 172 -25 666 -24 930 2 139
14 277 19 510 20 298 1 325 2 399 23 282 79 451 258 559 592 45 137 70 189
112 230 27 26 41 32 74 32 42 -1 51 -5 291 -128 538 -276 1112 -270 1802 19
109 46 204 104 248 152 23 25 25 33 25 143 0 108 2 121 28 174 47 95 130 156
314 229 191 75 348 178 511 334 281 269 440 590 508 1025 12 78 17 183 19 405
1 278 3 306 24 380 29 102 71 211 161 416 40 90 85 198 101 239 l29 75 0 336
0 337 -119 389 c-155 505 -238 757 -267 814 -68 136 -146 165 -310 117 l-75
-22 -37 19 c-28 16 -47 42 -93 127 -235 437 -587 784 -1004 988 -305 150 -588
219 -985 240 -243 13 -259 16 -313 50 -63 40 -90 92 -168 324 -36 110 -90 255
-118 321 -191 443 -463 783 -831 1038 -113 78 -142 107 -169 168 -28 62 -35
102 -76 404 -299 2198 -751 3947 -1434 5542 -162 380 -215 574 -296 1086 -109
688 -263 1212 -521 1769 -100 216 -247 484 -371 677 -30 46 -52 85 -49 88 2 3
87 -9 188 -26 436 -73 668 -76 925 -11 191 48 298 111 345 204 17 33 20 53 16
122 -6 109 -43 187 -220 454 -159 241 -215 305 -338 389 -269 185 -295 307
-122 573 300 460 409 642 573 963 336 657 587 1349 771 2130 76 322 77 491 7
710 -56 175 -146 323 -335 550 -425 511 -961 1045 -1410 1406 -824 662 -1680
1114 -2623 1384 -383 109 -853 202 -1149 226 -148 11 -193 22 -244 55 l-38 24
-812 -1 -813 -1 -120 -29z m1385 -389 c1924 -91 3530 -838 4980 -2316 195
-199 443 -472 551 -607 176 -219 259 -444 259 -703 0 -143 -16 -244 -71 -449
-161 -596 -376 -1162 -646 -1698 -132 -262 -200 -365 -327 -493 -208 -207
-469 -339 -801 -404 -308 -60 -489 -27 -631 114 -117 117 -172 282 -161 486
11 216 142 815 328 1500 95 347 129 504 163 741 37 258 49 435 50 714 0 281
-9 337 -78 473 -65 130 -129 172 -227 151 -66 -14 -110 -46 -137 -99 -26 -50
-26 -22 -1 -402 32 -504 -54 -1060 -249 -1613 -144 -410 -372 -865 -676 -1353
-182 -291 -439 -664 -479 -696 -36 -28 -45 -31 -110 -30 -40 0 -102 4 -139 9
-79 9 -115 -2 -153 -47 -14 -16 -85 -152 -159 -301 -184 -374 -331 -616 -568
-932 -200 -268 -328 -406 -486 -523 -215 -159 -462 -231 -704 -203 -175 19
-261 47 -602 190 -226 95 -391 125 -636 118 -192 -6 -271 -20 -450 -80 -149
-50 -214 -60 -333 -55 -173 9 -291 62 -430 197 -43 41 -100 109 -126 151 -145
226 -316 646 -370 907 -93 450 -18 866 224 1243 58 91 188 351 215 429 40 119
19 202 -68 268 -89 68 -170 64 -245 -10 -23 -23 -72 -77 -109 -118 -153 -174
-222 -145 -375 158 -187 372 -247 676 -284 1440 -18 365 -1 506 118 1014 49
209 57 258 58 344 0 90 -2 103 -24 134 -41 56 -157 93 -245 77 -89 -17 -133
-93 -186 -325 -283 -1224 -336 -1956 -194 -2705 13 -72 30 -186 36 -253 33
-343 -70 -653 -294 -888 -126 -134 -239 -205 -322 -205 -121 0 -187 92 -275
381 -248 814 -496 1840 -700 2894 -70 364 -77 422 -61 535 40 295 198 539 619
960 434 434 891 760 1486 1060 944 477 1995 761 3030 819 209 12 771 12 1015
1z m-1787 -8851 c83 -23 95 -68 47 -181 -31 -73 -38 -136 -18 -156 7 -7 13
-95 18 -269 4 -142 10 -267 15 -278 33 -79 99 -117 205 -117 91 -1 126 19 163
93 25 50 29 72 37 210 6 85 16 192 24 239 8 47 17 114 21 149 7 72 33 132 67
155 67 47 328 -20 427 -109 50 -45 77 -122 66 -191 -6 -43 -60 -231 -112 -389
-105 -324 -321 -510 -608 -523 -193 -8 -335 48 -476 188 -73 72 -94 101 -132
180 -69 142 -116 354 -133 598 -15 203 54 347 188 393 60 21 144 24 201 8z
m5838 -807 c229 -388 348 -753 464 -1422 128 -739 303 -1334 605 -2055 514
-1228 815 -2433 1115 -4460 106 -719 139 -837 295 -1043 68 -91 133 -150 300
-274 535 -395 781 -985 881 -2113 26 -289 6 -1221 -32 -1520 -22 -174 -100
-334 -227 -467 -60 -62 -92 -87 -156 -118 -264 -129 -477 -42 -620 253 -123
251 -192 528 -225 897 -6 63 -18 273 -26 465 -8 193 -20 404 -25 470 -54 614
-225 1134 -524 1584 -247 374 -495 507 -831 446 -96 -17 -164 -19 -202 -4 -41
15 -91 67 -105 108 -9 27 -12 214 -13 716 0 444 -5 727 -13 815 -62 687 -139
1124 -288 1638 -25 86 -57 202 -70 256 -32 128 -52 174 -98 213 -45 40 -68 46
-151 41 -71 -4 -105 -23 -142 -77 -39 -57 -38 -100 6 -555 57 -588 60 -633 67
-936 15 -624 -42 -1224 -232 -2450 -41 -267 -111 -735 -155 -1040 -96 -673
-162 -1098 -324 -2106 -328 -2033 -329 -2043 -329 -2534 0 -227 5 -344 18
-455 16 -142 25 -194 76 -480 43 -242 26 -505 -46 -725 -68 -205 -170 -363
-359 -556 -179 -183 -259 -212 -347 -124 -56 56 -55 100 9 290 82 245 67 346
-61 406 -94 44 -184 28 -245 -41 -68 -78 -147 -317 -171 -525 -19 -153 -65
-230 -156 -260 -46 -15 -265 -7 -362 13 -98 21 -150 86 -137 171 17 101 68
293 100 375 40 105 45 173 16 237 -30 65 -114 115 -195 116 -94 1 -144 -42
-207 -177 -45 -97 -133 -371 -153 -477 -18 -94 -37 -133 -79 -158 -69 -43
-219 -7 -297 71 -68 69 -76 128 -45 342 31 218 41 250 130 432 251 511 369
1026 415 1810 18 324 41 1344 47 2165 13 1757 -53 3268 -208 4740 -40 386 -54
466 -117 660 -78 242 -254 547 -449 780 -125 149 -336 356 -425 418 -541 373
-1311 209 -1659 -352 -94 -152 -133 -275 -194 -608 -79 -429 -128 -902 -155
-1498 -49 -1097 -41 -1777 36 -2970 104 -1620 192 -2547 355 -3700 46 -328 59
-470 59 -650 0 -282 -38 -459 -145 -675 -140 -281 -361 -508 -600 -615 -90
-40 -236 -83 -247 -72 -21 21 -19 110 6 234 14 70 26 159 26 197 0 64 -3 73
-30 105 -39 43 -113 69 -200 70 -159 1 -210 -76 -255 -379 -31 -207 -52 -263
-124 -335 -87 -86 -181 -108 -332 -76 -88 19 -165 59 -190 99 -30 48 -20 99
49 244 145 306 148 413 17 485 -99 54 -187 46 -256 -23 -52 -52 -177 -307
-225 -459 -49 -156 -63 -187 -98 -217 -26 -22 -37 -25 -83 -21 -67 6 -157 51
-196 100 -48 60 -47 97 13 293 66 214 93 274 179 394 242 337 383 672 450
1071 34 199 44 382 38 658 -8 330 -17 412 -143 1287 -384 2674 -618 4661 -769
6535 -102 1278 -98 2144 15 3046 52 413 105 694 239 1269 38 165 129 572 201
905 206 946 335 1482 434 1800 58 187 65 205 75 194 5 -5 123 -171 261 -369
560 -798 753 -1051 1070 -1400 158 -173 442 -453 615 -604 353 -309 820 -655
989 -731 219 -100 446 -103 690 -11 309 116 1149 516 1516 722 1157 646 1983
1343 2659 2242 l126 168 18 -23 c11 -12 41 -60 68 -106z m4574 -10952 c305
-78 633 -220 824 -357 304 -218 502 -491 625 -865 53 -163 84 -225 130 -266
59 -51 134 -54 270 -11 64 20 70 21 102 6 42 -20 54 -44 114 -225 63 -190 82
-301 83 -477 0 -429 -177 -839 -508 -1170 -337 -338 -727 -495 -1226 -495 -93
0 -111 3 -157 26 -113 56 -135 163 -87 440 24 143 27 175 22 319 -12 338 -113
608 -375 1000 -74 110 -148 227 -164 260 -108 212 -141 413 -119 717 10 129
10 234 1 470 -16 416 -1 545 74 617 18 17 46 36 62 41 51 17 202 3 329 -30z"/>
<path d="M3920 24603 c-141 -15 -283 -59 -384 -120 -252 -152 -420 -502 -338
-705 34 -83 146 -158 238 -158 77 0 131 24 229 101 108 86 185 126 276 145
124 26 254 -11 387 -110 91 -68 138 -89 203 -94 77 -6 119 10 183 69 75 68
100 129 94 229 -4 67 -10 87 -51 163 -135 256 -339 411 -603 461 -90 17 -183
25 -234 19z"/>
<path d="M7439 24424 c-178 -32 -308 -100 -434 -228 -207 -210 -250 -397 -124
-540 22 -25 64 -57 95 -72 48 -23 63 -26 127 -22 61 4 84 11 148 46 122 68
208 93 329 99 79 4 122 1 170 -11 123 -31 248 -102 367 -207 112 -99 207 -122
310 -75 112 53 172 156 160 276 -16 150 -120 344 -256 481 -133 133 -276 207
-478 248 -119 25 -296 27 -414 5z"/>
<path d="M4591 22179 c-389 -37 -601 -215 -603 -509 -1 -162 54 -315 181 -506
131 -196 308 -352 516 -454 597 -294 1304 -71 1665 525 94 155 125 262 118
407 -3 83 -8 104 -38 164 -59 121 -178 217 -355 285 -151 59 -228 69 -580 79
-602 16 -810 18 -904 9z"/>
</g>
</svg>
